<svg xmlns="http://www.w3.org/2000/svg" xmlns:xlink="http://www.w3.org/1999/xlink" xmlns:lucid="lucid" width="1218.5" height="720"><g transform="translate(-280 -180)" lucid:page-tab-id="0_0"><path d="M300 206c0-3.3 2.7-6 6-6h1166.5c3.3 0 6 2.7 6 6v668c0 3.3-2.7 6-6 6H306c-3.3 0-6-2.7-6-6z" stroke="#5e5e5e" stroke-width="3" fill="#fff"/><path d="M1468.5 210h-15v20h15z" stroke="#5e5e5e" fill="#fff"/><path d="M1458.5 213.33h-10v3.34h10zm0 10h-10v3.34h10z" stroke="#5e5e5e" fill="#fff"/><path d="M687.75 326c0-3.3 2.7-6 6-6h768c3.3 0 6 2.7 6 6v528c0 3.3-2.7 6-6 6h-768c-3.3 0-6-2.7-6-6z" stroke="#5e5e5e" stroke-width="3" fill="#fff"/><path d="M1457.75 330h-15v20h15z" stroke="#5e5e5e" fill="#fff"/><path d="M1447.75 333.33h-10v3.34h10zm0 10h-10v3.34h10z" stroke="#5e5e5e" fill="#fff"/><path d="M907.75 366c0-3.3 2.7-6 6-6h168c3.3 0 6 2.7 6 6v108c0 3.3-2.7 6-6 6h-168c-3.3 0-6-2.7-6-6z" stroke="#5e5e5e" stroke-width="3" fill="#fff"/><path d="M887.75 386c0-3.3 2.7-6 6-6h28c3.3 0 6 2.7 6 6v8c0 3.3-2.7 6-6 6h-28c-3.3 0-6-2.7-6-6zM887.75 446c0-3.3 2.7-6 6-6h28c3.3 0 6 2.7 6 6v8c0 3.3-2.7 6-6 6h-28c-3.3 0-6-2.7-6-6z" stroke="#5e5e5e" stroke-width="3" fill="#fff"/><use xlink:href="#a" transform="matrix(1,0,0,1,927.7499999999999,372) translate(13.302469135802461 39.111111111111114)"/><use xlink:href="#b" transform="matrix(1,0,0,1,927.7499999999999,372) translate(34.87654320987654 65.77777777777777)"/><path d="M907.75 526c0-3.3 2.7-6 6-6h168c3.3 0 6 2.7 6 6v108c0 3.3-2.7 6-6 6h-168c-3.3 0-6-2.7-6-6z" stroke="#5e5e5e" stroke-width="3" fill="#fff"/><path d="M887.75 546c0-3.3 2.7-6 6-6h28c3.3 0 6 2.7 6 6v8c0 3.3-2.7 6-6 6h-28c-3.3 0-6-2.7-6-6zM887.75 606c0-3.3 2.7-6 6-6h28c3.3 0 6 2.7 6 6v8c0 3.3-2.7 6-6 6h-28c-3.3 0-6-2.7-6-6z" stroke="#5e5e5e" stroke-width="3" fill="#fff"/><use xlink:href="#c" transform="matrix(1,0,0,1,927.7499999999999,532) translate(41.666666666666664 52.44444444444444)"/><path d="M329.25 406c0-3.3 2.7-6 6-6h188c3.3 0 6 2.7 6 6v128c0 3.3-2.7 6-6 6h-188c-3.3 0-6-2.7-6-6z" stroke="#5e5e5e" stroke-width="3" fill="#fff"/><path d="M309.25 431c0-3.3 2.7-6 6-6h28c3.3 0 6 2.7 6 6v8c0 3.3-2.7 6-6 6h-28c-3.3 0-6-2.7-6-6zM309.25 501c0-3.3 2.7-6 6-6h28c3.3 0 6 2.7 6 6v8c0 3.3-2.7 6-6 6h-28c-3.3 0-6-2.7-6-6z" stroke="#5e5e5e" stroke-width="3" fill="#fff"/><use xlink:href="#d" transform="matrix(1,0,0,1,353.25,414) translate(56.01234567901235 60.44444444444444)"/><path d="M1130.25 571.47l-.92 3.4-2.53 2.54-3.42.93h-15.63v-2h15.37l2.64-.7 1.78-1.8.7-2.63v-69.37h2m-3.44-81.9l2.53 2.52.92 3.42v54.63h-2v-54.37l-.7-2.64-1.8-1.8-2.63-.7h-32.87v-2h33.13" fill="#5e5e5e"/><path d="M1090.28 421h-1.03v-2h1.03M1106.75 581.97l-14.26-4.64 14.25-4.63z" fill="#5e5e5e"/><path d="M1107.75 583.35l-18.5-6.02 18.5-6m-12.03 6l10.03 3.26v-6.53" fill="#5e5e5e"/><use xlink:href="#e" transform="matrix(1,0,0,1,1081.9413580246915,480.49868766404217) translate(0.005000000000002558 14.222222222222223)"/><use xlink:href="#f" transform="matrix(1,0,0,1,1081.9413580246915,480.49868766404217) translate(59.1654938271605 14.222222222222223)"/><path d="M714.7 390.55h-.07l-2.64.7-1.8 1.8-.7 2.63v68.45l-.92 3.42-2.53 2.53-3.42.92H531.75v-2h170.62l2.64-.7 1.8-1.8.7-2.63v-68.45l.92-3.42 2.53-2.53 3.42-.92h.34m153.05 2h-62.67v-2h62.67" fill="#5e5e5e"/><path d="M531.78 471h-1.03v-2h1.03M883 389.55l-14.25 4.64v-9.3z" fill="#5e5e5e"/><path d="M886.25 389.55l-18.5 6v-12m2 9.26l10.03-3.25-10.03-3.26" fill="#5e5e5e"/><use xlink:href="#g" transform="matrix(1,0,0,1,714.7110932200399,378.8833333333333) translate(0.005000000000002558 14.222222222222223)"/><use xlink:href="#h" transform="matrix(1,0,0,1,714.7110932200399,378.8833333333333) translate(50.869197530864206 14.222222222222223)"/><path d="M726.48 471H531.75v-2h194.73m154.44 2H865.2v-2h15.72" fill="#5e5e5e"/><path d="M531.78 471h-1.03v-2h1.03M881.6 476.34l-7.05-6 12.77-7.87z" fill="#5e5e5e"/><path d="M882.02 478l-9.16-7.8 16.56-10.2m-13.17 10.46l4.96 4.22 4.03-9.75" fill="#5e5e5e"/><use xlink:href="#e" transform="matrix(1,0,0,1,726.4794178397337,459.3333333333333) translate(0.0049999999999954525 14.222222222222223)"/><use xlink:href="#i" transform="matrix(1,0,0,1,726.4794178397337,459.3333333333333) translate(59.165493827160496 14.222222222222223)"/><use xlink:href="#j" transform="matrix(1,0,0,1,726.4794178397337,459.3333333333333) translate(99.21487654320988 14.222222222222223)"/><path d="M867.75 548.55v2h-53v-2m-108.7-78.63l2.53 2.53.92 3.42v63h-2v-62.74l-.7-2.64-1.8-1.8-2.63-.7H531.75v-2h170.88" fill="#5e5e5e"/><path d="M531.78 471h-1.03v-2h1.03M883 549.55l-14.25 4.64v-9.3z" fill="#5e5e5e"/><path d="M886.25 549.55l-18.5 6v-12m2 9.26l10.03-3.25-10.03-3.26" fill="#5e5e5e"/><use xlink:href="#e" transform="matrix(1,0,0,1,676.020785725578,538.8833333333333) translate(0.0049999999999954525 14.222222222222223)"/><use xlink:href="#i" transform="matrix(1,0,0,1,676.020785725578,538.8833333333333) translate(59.165493827160496 14.222222222222223)"/><use xlink:href="#j" transform="matrix(1,0,0,1,676.020785725578,538.8833333333333) translate(99.21487654320988 14.222222222222223)"/><path d="M1336.57 434.65c2.76-2.32 5.4-4.64 8.16-6.98.84-.8 1.9-1.63 2.75-2.46-.72-.9-1.9-1.6-3-1.97-2.03-.8-4.07-.54-6 .58-2.5 1.46-3.6 3.78-3.6 6.67.13 1.15.37 2.23.97 3.2.24.35.48.66.72.98m3.12 2.2c1.3.46 2.87.4 4.2.14.7-.3 2.5-1.06 3.1-.95h.12l.12.06c.36.2.72.47.96.9.48.94.24 1.88-.72 2.43l-.24.2c-3.47 2-7.2 1.7-10.55-.15-1.7-.88-2.9-2.23-3.85-3.83l-.24-.37c-2.14-3.86-1.9-7.9.6-11.56.85-1.26 1.93-2.26 3.25-3l.6-.3c3.24-1.88 6.72-1.76 10.07-.1 1.68.88 3.24 2.2 4.2 3.94l.12.32c.84 1.26-.12 2.37-1.08 3.12-1.2.88-2.28 1.94-3.36 2.86-2.5 2.1-4.9 4.2-7.3 6.3zm25.9-17.5h.35c1.08 0 1.8.74 1.8 1.82 0 1.52-1.44 1.9-2.64 1.9-1.67 0-3.23 1-4.3 2.1-1.44 1.38-2.04 3.16-2.04 5.13v8.8c0 1.04-.6 1.84-1.68 1.84h-.36c-.96 0-1.68-.8-1.68-1.83v-9.32c0-3.57 1.8-6.52 4.68-8.55 1.8-1.23 3.7-1.9 5.87-1.9zm-45.34 6.26c1.44-1.4 2.76-2.82 4.2-4.23.48-.37 1.92-2.03 2.52-2.03h.72v.03c.84.17 1.44.7 1.44 1.57v.38c0 .6-.6 1.3-1.08 1.74-.84.9-1.68 1.75-2.52 2.6l-4.44 4.47c1.92 1.9 3.84 3.8 5.64 5.72.6.54 1.08 1.1 1.56 1.6.24.2.48.43.6.72.24.23.24.5.24.8v.5c-.12.8-.72 1.47-1.56 1.47h-.36c-.6 0-1.32-.68-1.68-1.06-.84-.8-1.68-1.66-2.52-2.48l-2.76-2.75v4.4c0 1-.6 1.84-1.68 1.84h-.24c-1.08 0-1.68-.84-1.68-1.85v-24.77c0-1 .6-1.8 1.68-1.8h.24c1.08 0 1.68.8 1.68 1.8v11.33zm-11.87-2.45c-.5-.26-1.57-.35-2.17-.37-3-.12-5.15 1.6-6.47 4.3-.48.9-.6 1.9-.6 2.93 0 3.13 1.56 5.3 4.3 6.65 1.1.5 2.4.57 3.5.57.95 0 2.4-.6 3.23-1l.1-.08h.73v.02c.84.18 1.56.7 1.56 1.58v.37c0 2.24-4.1 2.73-5.65 2.84-5.5.37-9.6-2.63-11.15-7.84-.24-.88-.36-1.8-.36-2.74v-.72c0-3.95 2.04-7.1 5.4-9.1 1.55-.94 3.23-1.43 5.15-1.43h.7c1.93 0 3.73.6 5.3 1.67l.1.1.13.13c.12.3.36.63.36.97v.35c0 .94-.73 1.43-1.57 1.6l-.12.03h-.23c-.48-.03-1.68-.57-2.28-.8zm-33.1 6.92c0 2.78 1.3 4.8 3.7 6.27 1.1.65 2.3.97 3.6.97 2.65 0 4.68-1.4 6.12-3.7.72-1.1.96-2.33.96-3.6 0-2.6-1.2-4.54-3.35-5.97-1.2-.8-2.4-1.17-3.84-1.17-3 0-5.3 1.55-6.6 4.26-.37.95-.6 1.92-.6 2.95zm6.83-10.87h.48c4.2 0 7.44 2.06 9.48 5.75.84 1.46 1.2 3.06 1.2 4.75v.74c0 3.95-1.92 7.1-5.28 9.1-1.55.92-3.35 1.4-5.15 1.4h-.72c-3.96 0-7.08-1.94-9.12-5.35-.82-1.58-1.3-3.33-1.3-5.16v-.74c0-3.95 1.9-7.07 5.27-9.1 1.56-.94 3.36-1.4 5.16-1.4zm-30.7 10.87c0 2.86 1.44 5 3.96 6.38.95.54 2.03.86 3.22.86 2.76 0 4.8-1.3 6.24-3.68.72-1.12.96-2.32.96-3.6 0-2.5-1.08-4.4-3.12-5.87-1.2-.86-2.52-1.3-4.08-1.3-3 0-5.15 1.56-6.47 4.27-.48.95-.72 1.92-.72 2.95zm14.4-8.15v-7.7c0-1.03.7-1.83 1.67-1.83h.36c1.08 0 1.68.8 1.68 1.82v16.22c0 3.95-1.92 7.1-5.4 9.1-1.56.92-3.24 1.4-5.16 1.4h-.72c-3.95 0-7.07-1.94-9-5.35-.95-1.58-1.43-3.33-1.43-5.16v-.74c0-3.95 1.92-7.1 5.4-9.1 1.56-.94 3.24-1.4 5.03-1.4h.72c2.76 0 5.04 1.03 6.84 2.72zM1316.93 361.55h10.82v10.98h5.36c2.53 0 5.16-.4 7.47-1.23 1.15-.4 2.52-.96 3.67-1.64-1.57-1.97-2.3-4.5-2.52-6.95-.3-3.4.32-7.77 2.63-10.36l1.15-1.3 1.26 1.03c3.47 2.73 6.3 6.55 6.73 10.9 4.08-1.22 8.92-.88 12.5 1.17l1.46.9-.74 1.5c-3.04 5.92-9.45 7.76-15.65 7.42-9.24 23.25-29.5 34.23-54 34.23-12.7 0-24.36-4.78-30.97-16.03l-.1-.2-.95-2c-2.2-4.96-2.95-10.35-2.53-15.8l.2-1.64h9.15v-10.98h10.72v-10.78h21.52V340h12.8v21.55z" stroke="#000" stroke-opacity="0" fill="#394d54"/><path d="M1351.77 365.6c.7-5.6-3.53-10-6.05-12.1-3.03 3.5-3.53 12.53 1.2 16.4-2.6 2.32-8.16 4.44-13.8 4.44h-68.8c-.52 5.92.5 11.37 2.9 16.03l.72 1.43c.5.84 1.1 1.64 1.7 2.43 2.84.2 5.36.26 7.78.2 4.74-.1 8.48-.68 11.4-1.68.4-.1.9.1 1.1.53.1.42-.1.9-.5 1.06-.4.15-.8.26-1.2.37-2.32.64-4.74 1.12-7.97 1.33h-.2c-.1 0-.2 0-.3.05-1.22.05-2.63.05-3.94.05-1.5 0-3.02 0-4.63-.1l-.1.05c5.75 6.45 14.73 10.32 25.92 10.32 23.8 0 43.98-10.58 52.86-34.28 6.35.63 12.5-1 15.23-6.4-4.45-2.6-10.1-1.75-13.33-.1z" stroke="#000" stroke-opacity="0" fill="#00aada"/><path d="M1351.75 365.6c.67-5.6-3.52-10-6.03-12.1-3 3.45-3.52 12.55 1.17 16.37-2.6 2.37-8.13 4.46-13.74 4.46h-64.75c-.24 9.05 3.1 15.97 9.05 20.1 4.7-.1 8.46-.68 11.4-1.68.4-.13.92.1 1 .55.17.4 0 .86-.5 1.04-.34.14-.76.23-1.17.37-2.27.64-4.95 1.15-8.13 1.37l-.08-.1c8.12 4.2 19.85 4.15 33.33-1.03 15.08-5.78 29.07-16.88 38.87-29.53-.17.06-.25.15-.42.2z" stroke="#000" stroke-opacity="0" fill="#24b8eb"/><path d="M1264.48 381.52c.4 3.16 1.38 6.14 2.75 8.85l.73 1.42c.48.84 1.05 1.66 1.62 2.43 2.83.2 5.5.25 7.84.2 4.7-.1 8.5-.65 11.4-1.67.4-.15.9.08 1.06.52.16.43-.08.9-.5 1.05-.4.15-.8.27-1.2.37-2.26.67-4.93 1.12-8.1 1.32-.07.02-.3.02-.4.02-1.2.08-2.58.1-3.96.1-1.45 0-3-.02-4.7-.1 5.76 6.47 14.82 10.35 26.06 10.35 20.3 0 38.02-7.77 48.3-24.88h-80.9z" stroke="#000" stroke-opacity="0" fill="#008bb8"/><path d="M1269.04 381.52c1.2 5.56 4.17 9.93 8.4 12.9 4.64-.08 8.47-.64 11.36-1.66.47-.14.94.1 1.08.5.13.45-.07.92-.47 1.08-.4.12-.8.26-1.2.36-2.3.67-5.04 1.14-8.2 1.33 8.13 4.16 19.82 4.1 33.27-1.08 8.13-3.13 15.93-7.8 22.98-13.43h-67.2z" stroke="#000" stroke-opacity="0" fill="#039bc6"/><path d="M1281.48 364.1h.73v7.78h-.72v-7.78zm-1.4 0h.75v7.78h-.76v-7.78zm-1.42 0h.76v7.78h-.76v-7.78zm-1.4 0h.75v7.78h-.75v-7.78zm-1.42 0h.77v7.78h-.76v-7.78zm-1.38 0h.73v7.78h-.74v-7.78zm-.77-.77h9.3v9.33h-9.3v-9.33zM1292.2 353.33h.75v7.78h-.74v-7.77zm-1.4 0h.76v7.78h-.76v-7.77zm-1.4 0h.76v7.78h-.77v-7.77zm-1.42 0h.76v7.78h-.76v-7.77zm-1.4 0h.76v7.78h-.76v-7.77zm-1.4 0h.74v7.78h-.73v-7.77zm-.76-.77h9.3v9.33h-9.3v-9.34z" stroke="#000" stroke-opacity="0" fill="#00acd3"/><path d="M1292.2 364.1h.75v7.78h-.74v-7.78zm-1.4 0h.76v7.78h-.76v-7.78zm-1.4 0h.76v7.78h-.77v-7.78zm-1.42 0h.76v7.78h-.76v-7.78zm-1.4 0h.76v7.78h-.76v-7.78zm-1.4 0h.74v7.78h-.73v-7.78zm-.76-.77h9.3v9.33h-9.3v-9.33z" stroke="#000" stroke-opacity="0" fill="#20c2ef"/><path d="M1302.95 364.1h.73v7.78h-.73v-7.78zm-1.42 0h.76v7.78h-.77v-7.78zm-1.4 0h.76v7.78h-.77v-7.78zm-1.42 0h.78v7.78h-.77v-7.78zm-1.4 0h.77v7.78h-.76v-7.78zm-1.38 0h.74v7.78h-.74v-7.78zm-.77-.77h9.3v9.33h-9.3v-9.33z" stroke="#000" stroke-opacity="0" fill="#00acd3"/><path d="M1302.95 353.33h.73v7.78h-.73v-7.77zm-1.42 0h.76v7.78h-.77v-7.77zm-1.4 0h.76v7.78h-.77v-7.77zm-1.42 0h.78v7.78h-.77v-7.77zm-1.4 0h.77v7.78h-.76v-7.77zm-1.38 0h.74v7.78h-.74v-7.77zm-.77-.77h9.3v9.33h-9.3v-9.34zM1313.68 364.1h.73v7.78h-.72v-7.78zm-1.42 0h.76v7.78h-.76v-7.78zm-1.4 0h.76v7.78h-.76v-7.78zm-1.42 0h.77v7.78h-.76v-7.78zm-1.4 0h.76v7.78h-.76v-7.78zm-1.4 0h.75v7.78h-.75v-7.78zm-.76-.77h9.3v9.33h-9.3v-9.33z" stroke="#000" stroke-opacity="0" fill="#20c2ef"/><path d="M1313.68 353.33h.73v7.78h-.72v-7.77zm-1.42 0h.76v7.78h-.76v-7.77zm-1.4 0h.76v7.78h-.76v-7.77zm-1.42 0h.77v7.78h-.76v-7.77zm-1.4 0h.76v7.78h-.76v-7.77zm-1.4 0h.75v7.78h-.75v-7.77zm-.76-.77h9.3v9.33h-9.3v-9.34z" stroke="#000" stroke-opacity="0" fill="#00acd3"/><path d="M1313.68 342.57h.73v7.78h-.72v-7.78zm-1.42 0h.76v7.78h-.76v-7.78zm-1.4 0h.76v7.78h-.76v-7.78zm-1.42 0h.77v7.78h-.76v-7.78zm-1.4 0h.76v7.78h-.76v-7.78zm-1.4 0h.75v7.78h-.75v-7.78zm-.76-.78h9.3v9.33h-9.3v-9.34z" stroke="#000" stroke-opacity="0" fill="#20c2ef"/><path d="M1324.4 364.1h.74v7.78h-.73v-7.78zm-1.4 0h.76v7.78h-.77v-7.78zm-1.4 0h.75v7.78h-.76v-7.78zm-1.42 0h.76v7.78h-.76v-7.78zm-1.4 0h.75v7.78h-.76v-7.78zm-1.4 0h.74v7.78h-.73v-7.78zm-.77-.77h9.32v9.33h-9.3v-9.33z" stroke="#000" stroke-opacity="0" fill="#00acd3"/><path d="M1293.14 387.8c1.4 0 2.56 1.14 2.56 2.56 0 1.42-1.15 2.57-2.56 2.57-1.42 0-2.57-1.15-2.57-2.57s1.15-2.57 2.57-2.57" stroke="#000" stroke-opacity="0" fill="#d4edf1"/><path d="M1293.14 388.52c.23 0 .46.04.66.12-.22.13-.37.37-.37.65 0 .4.33.74.75.74.28 0 .53-.16.66-.4.08.23.13.47.13.72 0 1.02-.82 1.85-1.83 1.85-1.02 0-1.84-.82-1.84-1.84s.82-1.84 1.84-1.84M1247.75 382.45h119.36c-2.63-.66-8.24-1.55-7.28-4.97-4.78 5.5-16.12 3.85-18.98 1.14-3.23 4.67-21.85 2.9-23.16-.74-4.06 4.73-16.47 4.73-20.53 0-1.32 3.63-19.94 5.4-23.16.74-2.85 2.7-14.2 4.35-18.97-1.14.96 3.42-4.65 4.3-7.28 4.97" stroke="#000" stroke-opacity="0" fill="#394d54"/><path d="M1299.96 406.33c-6.37-3.02-9.84-7.13-11.8-11.62-2.36.7-5.2 1.12-8.5 1.3-1.22.08-2.53.1-3.9.1-1.58 0-3.24-.04-5-.13 5.84 5.84 13 10.34 26.28 10.42.96 0 1.95-.02 2.92-.07z" stroke="#000" stroke-opacity="0" fill="#bfdbe0"/><path d="M1290.53 398.85c-.87-1.2-1.73-2.7-2.35-4.14-2.37.68-5.2 1.12-8.5 1.3 2.27 1.24 5.5 2.38 10.85 2.85z" stroke="#000" stroke-opacity="0" fill="#d4edf1"/><use xlink:href="#k" transform="matrix(1,0,0,1,1217.75,449.9999999999999) translate(24.049999999999997 14.4)"/><use xlink:href="#l" transform="matrix(1,0,0,1,1217.75,449.9999999999999) translate(83 14.4)"/><path d="M498.86 457.48c.92-.9 1.8-1.83 2.72-2.76.28-.32.63-.65.9-.97-.23-.37-.62-.64-.98-.8-.68-.3-1.36-.2-2 .24-.84.57-1.2 1.5-1.2 2.63.04.45.12.88.32 1.27l.24.38m1.04.88c.44.18.96.16 1.4.05.24-.1.83-.4 1.03-.36h.04l.04.02c.13.08.25.18.33.35.16.4.08.76-.24.98l-.1.08c-1.14.8-2.38.68-3.5-.06-.56-.35-.96-.88-1.28-1.52l-.08-.15c-.72-1.53-.64-3.12.2-4.57.28-.5.64-.9 1.08-1.2l.2-.1c1.08-.75 2.24-.7 3.35-.05.56.36 1.08.88 1.4 1.57l.04.13c.3.5-.03.94-.35 1.23-.4.35-.76.77-1.12 1.13-.83.83-1.63 1.67-2.43 2.5zm8.63-6.94h.12c.36 0 .6.3.6.73 0 .6-.48.75-.88.75-.56 0-1.08.4-1.44.83-.48.55-.68 1.25-.68 2.03v3.5c0 .4-.2.72-.56.72h-.13c-.32 0-.56-.32-.56-.73v-3.7c0-1.4.6-2.58 1.57-3.38.6-.5 1.24-.75 1.96-.75zm-15.1 2.48c.47-.55.9-1.12 1.4-1.67.15-.15.63-.8.83-.8h.24c.28.07.48.28.48.63v.14c0 .24-.2.53-.36.7l-.84 1.03-1.48 1.76c.64.75 1.28 1.5 1.88 2.26.2.22.36.43.52.63.08.07.16.16.2.28.08.1.08.2.08.32v.19c-.04.32-.24.58-.52.58h-.12c-.2 0-.44-.27-.56-.42l-.84-1-.92-1.08v1.75c0 .4-.2.72-.56.72h-.08c-.36 0-.56-.32-.56-.72v-9.8c0-.4.2-.73.56-.73h.08c.36 0 .56.32.56.72v4.48zm-3.97-.97c-.16-.1-.52-.14-.72-.15-1-.04-1.7.64-2.15 1.7-.17.36-.2.76-.2 1.17 0 1.23.5 2.1 1.42 2.63.36.2.8.22 1.16.22.32 0 .8-.23 1.08-.4l.04-.03h.24v.02c.28.05.52.26.52.6v.16c0 .88-1.36 1.07-1.88 1.12-1.83.14-3.2-1.05-3.7-3.1-.1-.36-.13-.72-.13-1.1v-.28c0-1.56.68-2.8 1.8-3.6.5-.38 1.07-.57 1.7-.57h.25c.64 0 1.24.23 1.76.66l.04.02.04.06c.04.1.12.25.12.38v.14c0 .37-.24.57-.52.64h-.12c-.16 0-.56-.22-.76-.3zm-11.03 2.74c0 1.1.44 1.9 1.24 2.48.36.26.76.4 1.2.4.88 0 1.56-.57 2.04-1.48.25-.44.33-.92.33-1.42 0-1.03-.4-1.8-1.12-2.37-.4-.32-.8-.46-1.27-.46-1 0-1.76.6-2.2 1.68-.12.38-.2.76-.2 1.17zm2.28-4.3h.17c1.4 0 2.48.8 3.16 2.27.28.58.4 1.22.4 1.88v.3c0 1.56-.64 2.8-1.76 3.6-.52.36-1.12.56-1.72.56h-.24c-1.3 0-2.35-.77-3.03-2.12-.28-.62-.44-1.32-.44-2.04v-.3c0-1.56.64-2.8 1.76-3.6.5-.37 1.1-.55 1.7-.55zm-10.22 4.3c0 1.13.48 1.98 1.32 2.53.32.2.68.34 1.07.34.92 0 1.6-.52 2.08-1.46.24-.45.32-.92.32-1.43 0-1-.36-1.75-1.04-2.32-.4-.34-.84-.5-1.36-.5-1 0-1.7.6-2.15 1.67-.16.38-.24.76-.24 1.17zm4.8-3.23v-3.05c0-.4.23-.73.55-.73h.12c.36 0 .56.32.56.72v6.42c0 1.56-.63 2.8-1.8 3.6-.5.36-1.07.56-1.7.56h-.25c-1.3 0-2.35-.77-3-2.12-.3-.62-.47-1.32-.47-2.04v-.3c0-1.56.64-2.8 1.8-3.6.52-.37 1.08-.55 1.67-.55h.24c.9 0 1.67.4 2.27 1.07zM492.3 428.53h3.62v4.35h1.78c.84 0 1.72-.16 2.5-.48.37-.17.83-.38 1.2-.65-.5-.8-.76-1.78-.83-2.76-.1-1.36.1-3.1.88-4.1l.38-.53.42.4c1.16 1.1 2.1 2.6 2.25 4.33 1.36-.5 2.97-.35 4.16.46l.5.35-.25.6c-1 2.35-3.14 3.08-5.2 2.95-3.1 9.2-9.85 13.56-18 13.56-4.24 0-8.13-1.88-10.33-6.34l-.04-.08-.3-.78c-.75-1.98-1-4.1-.86-6.27l.07-.65h3.05v-4.35h3.56v-4.26h7.18V420h4.27v8.53z" stroke="#000" stroke-opacity="0" fill="#394d54"/><path d="M503.92 430.14c.24-2.22-1.17-3.96-2-4.8-1.02 1.4-1.2 4.97.4 6.5-.88.92-2.73 1.76-4.62 1.76h-22.93c-.17 2.35.17 4.5.97 6.35l.24.56c.17.35.37.66.57.98.94.08 1.78.1 2.6.08 1.57-.04 2.82-.27 3.8-.67.13-.05.3.03.36.2.04.17-.02.36-.16.42-.13.06-.27.1-.4.15-.77.25-1.58.44-2.66.52h-.16c-.4.03-.88.03-1.32.03-.5 0-1 0-1.54-.04h-.04c1.92 2.57 4.9 4.1 8.64 4.1 7.94 0 14.67-4.2 17.63-13.58 2.1.25 4.15-.4 5.06-2.54-1.48-1.02-3.36-.7-4.44-.04z" stroke="#000" stroke-opacity="0" fill="#00aada"/><path d="M503.92 430.14c.22-2.22-1.18-3.97-2-4.8-1.02 1.37-1.2 4.98.38 6.5-.87.93-2.7 1.76-4.58 1.76h-21.58c-.1 3.58 1.03 6.32 3 7.96 1.57-.04 2.83-.27 3.8-.67.15-.06.32.03.34.2.06.17 0 .35-.16.42-.12.06-.26.1-.4.15-.75.25-1.64.45-2.7.54l-.03-.03c2.7 1.66 6.6 1.64 11.1-.4 5.03-2.3 9.7-6.7 12.96-11.7-.06 0-.1.05-.14.07z" stroke="#000" stroke-opacity="0" fill="#24b8eb"/><path d="M474.83 436.44c.13 1.25.46 2.44.9 3.5l.26.57c.15.35.34.67.53.98.94.08 1.83.1 2.6.08 1.57-.04 2.84-.26 3.8-.66.15-.06.3.03.36.2.05.17-.03.36-.17.42-.13.06-.27.1-.4.14-.76.27-1.65.45-2.7.53h-.13c-.4.03-.87.04-1.33.04-.48 0-1 0-1.56-.04 1.93 2.56 4.95 4.1 8.7 4.1 6.76 0 12.67-3.08 16.1-9.86h-26.97z" stroke="#000" stroke-opacity="0" fill="#008bb8"/><path d="M476.35 436.44c.4 2.2 1.4 3.94 2.8 5.1 1.54-.02 2.82-.24 3.78-.64.16-.06.32.03.36.2.04.17-.03.36-.16.42l-.4.14c-.77.27-1.7.45-2.74.53 2.7 1.64 6.6 1.6 11.1-.44 2.7-1.24 5.3-3.1 7.65-5.32h-22.4z" stroke="#000" stroke-opacity="0" fill="#039bc6"/><path d="M480.5 429.54h.24v3.1h-.25v-3.1zm-.48 0h.26v3.1h-.26v-3.1zm-.47 0h.26v3.1h-.25v-3.1zm-.47 0h.26v3.1h-.26v-3.1zm-.47 0h.27v3.1h-.26v-3.1zm-.45 0h.25v3.1h-.25v-3.1zm-.25-.3h3.1v3.7h-3.1v-3.7zM484.07 425.28h.25v3.08h-.25v-3.08zm-.47 0h.25v3.08h-.25v-3.08zm-.47 0h.26v3.08h-.27v-3.08zm-.47 0h.25v3.08h-.24v-3.08zm-.47 0h.25v3.08h-.26v-3.08zm-.47 0h.24v3.08h-.24v-3.08zm-.26-.3h3.1v3.7h-3.1v-3.7z" stroke="#000" stroke-opacity="0" fill="#00acd3"/><path d="M484.07 429.54h.25v3.1h-.25v-3.1zm-.47 0h.25v3.1h-.25v-3.1zm-.47 0h.26v3.1h-.27v-3.1zm-.47 0h.25v3.1h-.24v-3.1zm-.47 0h.25v3.1h-.26v-3.1zm-.47 0h.24v3.1h-.24v-3.1zm-.26-.3h3.1v3.7h-3.1v-3.7z" stroke="#000" stroke-opacity="0" fill="#20c2ef"/><path d="M487.65 429.54h.24v3.1h-.25v-3.1zm-.47 0h.25v3.1h-.25v-3.1zm-.47 0h.26v3.1h-.25v-3.1zm-.46 0h.25v3.1h-.26v-3.1zm-.47 0h.25v3.1h-.25v-3.1zm-.46 0h.25v3.1h-.24v-3.1zm-.25-.3h3.1v3.7h-3.1v-3.7z" stroke="#000" stroke-opacity="0" fill="#00acd3"/><path d="M487.65 425.28h.24v3.08h-.25v-3.08zm-.47 0h.25v3.08h-.25v-3.08zm-.47 0h.26v3.08h-.25v-3.08zm-.46 0h.25v3.08h-.26v-3.08zm-.47 0h.25v3.08h-.25v-3.08zm-.46 0h.25v3.08h-.24v-3.08zm-.25-.3h3.1v3.7h-3.1v-3.7zM491.23 429.54h.24v3.1h-.24v-3.1zm-.48 0h.26v3.1h-.25v-3.1zm-.46 0h.24v3.1h-.25v-3.1zm-.5 0h.27v3.1h-.26v-3.1zm-.45 0h.25v3.1h-.25v-3.1zm-.47 0h.25v3.1h-.25v-3.1zm-.25-.3h3.1v3.7h-3.1v-3.7z" stroke="#000" stroke-opacity="0" fill="#20c2ef"/><path d="M491.23 425.28h.24v3.08h-.24v-3.08zm-.48 0h.26v3.08h-.25v-3.08zm-.46 0h.24v3.08h-.25v-3.08zm-.5 0h.27v3.08h-.26v-3.08zm-.45 0h.25v3.08h-.25v-3.08zm-.47 0h.25v3.08h-.25v-3.08zm-.25-.3h3.1v3.7h-3.1v-3.7z" stroke="#000" stroke-opacity="0" fill="#00acd3"/><path d="M491.23 421.02h.24v3.08h-.24v-3.08zm-.48 0h.26v3.08h-.25v-3.08zm-.46 0h.24v3.08h-.25v-3.08zm-.5 0h.27v3.08h-.26v-3.08zm-.45 0h.25v3.08h-.25v-3.08zm-.47 0h.25v3.08h-.25v-3.08zm-.25-.3h3.1v3.7h-3.1v-3.7z" stroke="#000" stroke-opacity="0" fill="#20c2ef"/><path d="M494.8 429.54h.25v3.1h-.25v-3.1zm-.47 0h.26v3.1h-.27v-3.1zm-.47 0h.26v3.1h-.26v-3.1zm-.47 0h.25v3.1h-.26v-3.1zm-.48 0h.26v3.1h-.26v-3.1zm-.46 0h.25v3.1h-.24v-3.1zm-.26-.3h3.1v3.7h-3.1v-3.7z" stroke="#000" stroke-opacity="0" fill="#00acd3"/><path d="M484.38 438.93c.47 0 .85.45.85 1 0 .58-.38 1.03-.85 1.03s-.86-.45-.86-1.02c0-.56.4-1 .86-1" stroke="#000" stroke-opacity="0" fill="#d4edf1"/><path d="M484.38 439.2c.08 0 .15.03.22.06-.07.06-.12.15-.12.26 0 .17.1.3.25.3.1 0 .17-.06.22-.16.02.1.04.2.04.28 0 .4-.28.74-.62.74-.34 0-.6-.33-.6-.74 0-.4.26-.73.6-.73M469.25 436.8h39.78c-.88-.25-2.75-.6-2.43-1.96-1.58 2.18-5.36 1.53-6.3.46-1.1 1.84-7.3 1.14-7.73-.3-1.36 1.88-5.5 1.88-6.85 0-.44 1.44-6.64 2.14-7.72.3-.95 1.07-4.73 1.72-6.32-.46.32 1.36-1.55 1.7-2.43 1.97" stroke="#000" stroke-opacity="0" fill="#394d54"/><path d="M486.65 446.27c-2.12-1.2-3.28-2.83-3.93-4.6-.8.27-1.73.44-2.83.5-.42.04-.86.05-1.3.05-.54 0-1.1-.02-1.68-.05 1.95 2.3 4.33 4.1 8.76 4.12.32 0 .65 0 .97-.03z" stroke="#000" stroke-opacity="0" fill="#bfdbe0"/><path d="M483.5 443.3c-.28-.47-.57-1.06-.77-1.63-.8.26-1.74.44-2.84.5.75.5 1.83.95 3.6 1.14z" stroke="#000" stroke-opacity="0" fill="#d4edf1"/><path d="M1077.36 457.48c.92-.9 1.8-1.83 2.72-2.76.28-.32.63-.65.9-.97-.23-.37-.62-.64-.98-.8-.68-.3-1.36-.2-2 .24-.84.57-1.2 1.5-1.2 2.63.04.45.12.88.32 1.27l.24.38m1.04.88c.44.18.96.16 1.4.05.24-.1.83-.4 1.03-.36h.04l.04.02c.13.08.25.18.33.35.16.4.08.76-.24.98l-.1.08c-1.14.8-2.38.68-3.5-.06-.56-.35-.96-.88-1.28-1.52l-.08-.15c-.72-1.53-.64-3.12.2-4.57.28-.5.64-.9 1.08-1.2l.2-.1c1.08-.75 2.24-.7 3.35-.05.56.36 1.08.88 1.4 1.57l.04.13c.3.5-.03.94-.35 1.23-.4.35-.76.77-1.12 1.13-.83.83-1.63 1.67-2.43 2.5zm8.63-6.94h.12c.36 0 .6.3.6.73 0 .6-.48.75-.88.75-.56 0-1.08.4-1.44.83-.48.55-.68 1.25-.68 2.03v3.5c0 .4-.2.72-.56.72h-.13c-.32 0-.56-.32-.56-.73v-3.7c0-1.4.6-2.58 1.57-3.38.6-.5 1.24-.75 1.96-.75zm-15.1 2.48c.47-.55.9-1.12 1.4-1.67.15-.15.63-.8.83-.8h.24c.28.07.48.28.48.63v.14c0 .24-.2.53-.36.7l-.84 1.03-1.48 1.76c.64.75 1.28 1.5 1.88 2.26.2.22.36.43.52.63.08.07.16.16.2.28.08.1.08.2.08.32v.19c-.04.32-.24.58-.52.58h-.12c-.2 0-.44-.27-.56-.42l-.84-1-.92-1.08v1.75c0 .4-.2.72-.56.72h-.08c-.36 0-.56-.32-.56-.72v-9.8c0-.4.2-.73.56-.73h.08c.36 0 .56.32.56.72v4.48zm-3.97-.97c-.16-.1-.52-.14-.72-.15-1-.04-1.7.64-2.15 1.7-.17.36-.2.76-.2 1.17 0 1.23.5 2.1 1.42 2.63.36.2.8.22 1.16.22.32 0 .8-.23 1.08-.4l.04-.03h.24v.02c.28.05.52.26.52.6v.16c0 .88-1.36 1.07-1.88 1.12-1.83.14-3.2-1.05-3.7-3.1-.1-.36-.13-.72-.13-1.1v-.28c0-1.56.68-2.8 1.8-3.6.5-.38 1.07-.57 1.7-.57h.25c.64 0 1.24.23 1.76.66l.04.02.04.06c.04.1.12.25.12.38v.14c0 .37-.24.57-.52.64h-.12c-.16 0-.56-.22-.76-.3zm-11.03 2.74c0 1.1.44 1.9 1.24 2.48.36.26.76.4 1.2.4.88 0 1.56-.57 2.04-1.48.25-.44.33-.92.33-1.42 0-1.03-.4-1.8-1.12-2.37-.4-.32-.8-.46-1.27-.46-1 0-1.76.6-2.2 1.68-.12.38-.2.76-.2 1.17zm2.28-4.3h.17c1.4 0 2.48.8 3.16 2.27.28.58.4 1.22.4 1.88v.3c0 1.56-.64 2.8-1.76 3.6-.52.36-1.12.56-1.72.56h-.24c-1.3 0-2.35-.77-3.03-2.12-.28-.62-.44-1.32-.44-2.04v-.3c0-1.56.64-2.8 1.76-3.6.5-.37 1.1-.55 1.7-.55zm-10.22 4.3c0 1.13.48 1.98 1.32 2.53.32.2.68.34 1.07.34.92 0 1.6-.52 2.08-1.46.24-.45.32-.92.32-1.43 0-1-.36-1.75-1.04-2.32-.4-.34-.84-.5-1.36-.5-1 0-1.7.6-2.15 1.67-.16.38-.24.76-.24 1.17zm4.8-3.23v-3.05c0-.4.23-.73.55-.73h.12c.36 0 .56.32.56.72v6.42c0 1.56-.63 2.8-1.8 3.6-.5.36-1.07.56-1.7.56h-.25c-1.3 0-2.35-.77-3-2.12-.3-.62-.47-1.32-.47-2.04v-.3c0-1.56.64-2.8 1.8-3.6.52-.37 1.08-.55 1.67-.55h.24c.9 0 1.67.4 2.27 1.07zM1070.8 428.53h3.62v4.35h1.78c.84 0 1.72-.16 2.5-.48.37-.17.83-.38 1.2-.65-.5-.8-.76-1.78-.83-2.76-.1-1.36.1-3.1.88-4.1l.38-.53.42.4c1.16 1.1 2.1 2.6 2.25 4.33 1.36-.5 2.97-.35 4.16.46l.5.35-.25.6c-1 2.35-3.14 3.08-5.2 2.95-3.1 9.2-9.85 13.56-18 13.56-4.24 0-8.13-1.88-10.33-6.34l-.04-.08-.3-.78c-.75-1.98-1-4.1-.86-6.27l.07-.65h3.05v-4.35h3.56v-4.26h7.18V420h4.27v8.53z" stroke="#000" stroke-opacity="0" fill="#394d54"/><path d="M1082.42 430.14c.24-2.22-1.17-3.96-2-4.8-1.02 1.4-1.2 4.97.4 6.5-.88.92-2.73 1.76-4.62 1.76h-22.93c-.17 2.35.17 4.5.97 6.35l.24.56c.17.35.37.66.57.98.94.08 1.78.1 2.6.08 1.57-.04 2.82-.27 3.8-.67.13-.05.3.03.36.2.04.17-.02.36-.16.42-.13.06-.27.1-.4.15-.77.25-1.58.44-2.66.52h-.16c-.4.03-.88.03-1.32.03-.5 0-1 0-1.54-.04h-.04c1.92 2.57 4.9 4.1 8.64 4.1 7.94 0 14.67-4.2 17.63-13.58 2.1.25 4.15-.4 5.06-2.54-1.48-1.02-3.36-.7-4.44-.04z" stroke="#000" stroke-opacity="0" fill="#00aada"/><path d="M1082.42 430.14c.22-2.22-1.18-3.97-2-4.8-1.02 1.37-1.2 4.98.38 6.5-.87.93-2.7 1.76-4.58 1.76h-21.58c-.1 3.58 1.03 6.32 3 7.96 1.57-.04 2.83-.27 3.8-.67.15-.06.32.03.34.2.06.17 0 .35-.16.42-.12.06-.26.1-.4.15-.75.25-1.64.45-2.7.54l-.03-.03c2.7 1.66 6.6 1.64 11.1-.4 5.03-2.3 9.7-6.7 12.96-11.7-.06 0-.1.05-.14.07z" stroke="#000" stroke-opacity="0" fill="#24b8eb"/><path d="M1053.33 436.44c.13 1.25.46 2.44.9 3.5l.26.57c.15.35.34.67.53.98.94.08 1.83.1 2.6.08 1.57-.04 2.84-.26 3.8-.66.15-.06.3.03.36.2.05.17-.03.36-.17.42-.13.06-.27.1-.4.14-.76.27-1.65.45-2.7.53h-.13c-.4.03-.87.04-1.33.04-.48 0-1 0-1.56-.04 1.93 2.56 4.95 4.1 8.7 4.1 6.76 0 12.67-3.08 16.1-9.86h-26.97z" stroke="#000" stroke-opacity="0" fill="#008bb8"/><path d="M1054.85 436.44c.4 2.2 1.4 3.94 2.8 5.1 1.54-.02 2.82-.24 3.78-.64.16-.06.32.03.36.2.04.17-.03.36-.16.42l-.4.14c-.77.27-1.7.45-2.74.53 2.7 1.64 6.6 1.6 11.1-.44 2.7-1.24 5.3-3.1 7.65-5.32h-22.4z" stroke="#000" stroke-opacity="0" fill="#039bc6"/><path d="M1059 429.54h.24v3.1h-.25v-3.1zm-.48 0h.26v3.1h-.26v-3.1zm-.47 0h.26v3.1h-.25v-3.1zm-.47 0h.26v3.1h-.26v-3.1zm-.47 0h.27v3.1h-.26v-3.1zm-.45 0h.25v3.1h-.25v-3.1zm-.25-.3h3.1v3.7h-3.1v-3.7zM1062.57 425.28h.25v3.08h-.25v-3.08zm-.47 0h.25v3.08h-.25v-3.08zm-.47 0h.26v3.08h-.27v-3.08zm-.47 0h.25v3.08h-.24v-3.08zm-.47 0h.25v3.08h-.26v-3.08zm-.47 0h.24v3.08h-.24v-3.08zm-.26-.3h3.1v3.7h-3.1v-3.7z" stroke="#000" stroke-opacity="0" fill="#00acd3"/><path d="M1062.57 429.54h.25v3.1h-.25v-3.1zm-.47 0h.25v3.1h-.25v-3.1zm-.47 0h.26v3.1h-.27v-3.1zm-.47 0h.25v3.1h-.24v-3.1zm-.47 0h.25v3.1h-.26v-3.1zm-.47 0h.24v3.1h-.24v-3.1zm-.26-.3h3.1v3.7h-3.1v-3.7z" stroke="#000" stroke-opacity="0" fill="#20c2ef"/><path d="M1066.15 429.54h.24v3.1h-.25v-3.1zm-.47 0h.25v3.1h-.25v-3.1zm-.47 0h.26v3.1h-.25v-3.1zm-.46 0h.25v3.1h-.26v-3.1zm-.47 0h.25v3.1h-.25v-3.1zm-.46 0h.25v3.1h-.24v-3.1zm-.25-.3h3.1v3.7h-3.1v-3.7z" stroke="#000" stroke-opacity="0" fill="#00acd3"/><path d="M1066.15 425.28h.24v3.08h-.25v-3.08zm-.47 0h.25v3.08h-.25v-3.08zm-.47 0h.26v3.08h-.25v-3.08zm-.46 0h.25v3.08h-.26v-3.08zm-.47 0h.25v3.08h-.25v-3.08zm-.46 0h.25v3.08h-.24v-3.08zm-.25-.3h3.1v3.7h-3.1v-3.7zM1069.73 429.54h.24v3.1h-.24v-3.1zm-.48 0h.26v3.1h-.25v-3.1zm-.46 0h.24v3.1h-.25v-3.1zm-.5 0h.27v3.1h-.26v-3.1zm-.45 0h.25v3.1h-.25v-3.1zm-.47 0h.25v3.1h-.25v-3.1zm-.25-.3h3.1v3.7h-3.1v-3.7z" stroke="#000" stroke-opacity="0" fill="#20c2ef"/><path d="M1069.73 425.28h.24v3.08h-.24v-3.08zm-.48 0h.26v3.08h-.25v-3.08zm-.46 0h.24v3.08h-.25v-3.08zm-.5 0h.27v3.08h-.26v-3.08zm-.45 0h.25v3.08h-.25v-3.08zm-.47 0h.25v3.08h-.25v-3.08zm-.25-.3h3.1v3.7h-3.1v-3.7z" stroke="#000" stroke-opacity="0" fill="#00acd3"/><path d="M1069.73 421.02h.24v3.08h-.24v-3.08zm-.48 0h.26v3.08h-.25v-3.08zm-.46 0h.24v3.08h-.25v-3.08zm-.5 0h.27v3.08h-.26v-3.08zm-.45 0h.25v3.08h-.25v-3.08zm-.47 0h.25v3.08h-.25v-3.08zm-.25-.3h3.1v3.7h-3.1v-3.7z" stroke="#000" stroke-opacity="0" fill="#20c2ef"/><path d="M1073.3 429.54h.25v3.1h-.25v-3.1zm-.47 0h.26v3.1h-.27v-3.1zm-.47 0h.26v3.1h-.26v-3.1zm-.47 0h.25v3.1h-.26v-3.1zm-.48 0h.26v3.1h-.26v-3.1zm-.46 0h.25v3.1h-.24v-3.1zm-.26-.3h3.1v3.7h-3.1v-3.7z" stroke="#000" stroke-opacity="0" fill="#00acd3"/><path d="M1062.88 438.93c.47 0 .85.45.85 1 0 .58-.38 1.03-.85 1.03s-.86-.45-.86-1.02c0-.56.4-1 .86-1" stroke="#000" stroke-opacity="0" fill="#d4edf1"/><path d="M1062.88 439.2c.08 0 .15.03.22.06-.07.06-.12.15-.12.26 0 .17.1.3.25.3.1 0 .17-.06.22-.16.02.1.04.2.04.28 0 .4-.28.74-.62.74-.34 0-.6-.33-.6-.74 0-.4.26-.73.6-.73M1047.75 436.8h39.78c-.88-.25-2.75-.6-2.43-1.96-1.58 2.18-5.36 1.53-6.3.46-1.1 1.84-7.3 1.14-7.73-.3-1.36 1.88-5.5 1.88-6.85 0-.44 1.44-6.64 2.14-7.72.3-.95 1.07-4.73 1.72-6.32-.46.32 1.36-1.55 1.7-2.43 1.97" stroke="#000" stroke-opacity="0" fill="#394d54"/><path d="M1065.15 446.27c-2.12-1.2-3.28-2.83-3.93-4.6-.8.27-1.73.44-2.83.5-.42.04-.86.05-1.3.05-.54 0-1.1-.02-1.68-.05 1.95 2.3 4.33 4.1 8.76 4.12.32 0 .65 0 .97-.03z" stroke="#000" stroke-opacity="0" fill="#bfdbe0"/><path d="M1062 443.3c-.28-.47-.57-1.06-.77-1.63-.8.26-1.74.44-2.84.5.75.5 1.83.95 3.6 1.14z" stroke="#000" stroke-opacity="0" fill="#d4edf1"/><path d="M1072.16 627.32c1.38-1.15 2.7-2.3 4.08-3.5.42-.4.96-.8 1.38-1.22-.36-.45-.96-.8-1.5-.98-1.02-.4-2.04-.28-3 .28-1.26.73-1.8 1.9-1.8 3.34.06.57.18 1.1.48 1.6l.36.48m1.56 1.1c.66.23 1.44.2 2.1.08.36-.15 1.26-.53 1.56-.47h.06l.06.02c.18.1.36.23.48.45.24.47.12.94-.36 1.2l-.12.1c-1.74 1-3.6.87-5.28-.06-.84-.44-1.44-1.1-1.92-1.92l-.12-.18c-1.08-1.93-.96-3.95.3-5.78.42-.63.96-1.13 1.62-1.5l.3-.15c1.62-.93 3.36-.87 5.04-.04.84.44 1.62 1.1 2.1 1.97l.06.16c.42.62-.06 1.18-.54 1.55-.6.44-1.14.97-1.68 1.43-1.26 1.04-2.46 2.1-3.66 3.15zm12.95-8.75h.18c.54 0 .9.37.9.92 0 .74-.72.93-1.32.93-.84 0-1.62.5-2.16 1.06-.72.68-1.02 1.56-1.02 2.55v4.4c0 .52-.3.92-.84.92h-.17c-.48 0-.84-.4-.84-.9v-4.68c0-1.8.9-3.27 2.33-4.28.9-.62 1.86-.95 2.94-.95zM1064 622.8c.73-.7 1.4-1.4 2.1-2.1.24-.2.96-1.03 1.26-1.03h.36v.02c.42.07.72.33.72.77v.2c0 .3-.3.65-.54.86l-1.26 1.3-2.2 2.23c.95.96 1.9 1.9 2.8 2.87.3.27.54.54.78.8.12.1.24.2.3.35.12.12.12.26.12.4v.25c-.06.4-.36.74-.78.74h-.18c-.3 0-.66-.34-.84-.53-.42-.4-.84-.83-1.25-1.24l-1.4-1.38v2.2c0 .5-.3.92-.83.92h-.12c-.54 0-.84-.4-.84-.9v-12.4c0-.5.3-.9.85-.9h.12c.54 0 .84.4.84.9v5.66zm-5.93-1.23c-.24-.13-.78-.17-1.08-.18-1.5-.07-2.6.8-3.25 2.13-.24.46-.3.96-.3 1.48 0 1.57.78 2.65 2.16 3.33.55.24 1.2.28 1.75.28.48 0 1.2-.3 1.62-.5l.06-.03h.36c.4.1.77.36.77.8v.2c0 1.1-2.04 1.34-2.82 1.4-2.76.2-4.8-1.3-5.58-3.92-.12-.44-.18-.9-.18-1.37v-.36c0-1.97 1-3.55 2.7-4.55.77-.47 1.6-.7 2.57-.7h.36c.96 0 1.86.27 2.64.82l.06.03.06.07c.05.14.17.32.17.5v.16c0 .47-.36.7-.78.8h-.19c-.23 0-.83-.27-1.13-.4zm-16.55 3.47c0 1.38.66 2.4 1.86 3.13.54.33 1.14.48 1.8.48 1.32 0 2.34-.7 3.06-1.86.36-.55.48-1.16.48-1.8 0-1.3-.6-2.27-1.68-2.98-.6-.4-1.2-.6-1.92-.6-1.5 0-2.64.78-3.3 2.14-.18.47-.3.96-.3 1.48zm3.42-5.44h.24c2.1 0 3.72 1.03 4.74 2.87.42.73.6 1.54.6 2.38v.37c0 1.98-.96 3.55-2.64 4.55-.78.46-1.68.7-2.58.7h-.36c-1.98 0-3.54-.97-4.56-2.67-.42-.8-.66-1.66-.66-2.58v-.37c0-1.97.96-3.53 2.64-4.55.78-.47 1.68-.7 2.58-.7zm-15.35 5.44c0 1.43.7 2.5 1.97 3.2.48.26 1.02.4 1.62.4 1.37 0 2.4-.64 3.1-1.83.36-.55.48-1.15.48-1.8 0-1.24-.53-2.2-1.55-2.93-.6-.42-1.26-.64-2.04-.64-1.5 0-2.6.77-3.25 2.13-.24.47-.36.96-.36 1.48zm7.18-4.08v-3.85c0-.5.36-.9.84-.9h.18c.54 0 .84.4.84.9v8.12c0 1.98-.96 3.55-2.7 4.55-.77.46-1.6.7-2.57.7h-.36c-1.97 0-3.53-.97-4.5-2.67-.47-.8-.7-1.66-.7-2.58v-.37c0-1.97.95-3.55 2.7-4.55.77-.47 1.6-.7 2.5-.7h.37c1.38 0 2.52.5 3.4 1.36zM1062.34 590.77h5.4v5.5h2.7c1.25 0 2.56-.2 3.72-.62.58-.2 1.26-.48 1.84-.82-.8-1-1.16-2.25-1.26-3.48-.16-1.7.15-3.88 1.3-5.18l.6-.65.62.5c1.73 1.38 3.15 3.3 3.36 5.47 2.05-.62 4.46-.45 6.25.57l.73.44-.36.76c-1.53 2.97-4.73 3.9-7.83 3.72-4.6 11.63-14.75 17.12-26.98 17.12-6.36 0-12.2-2.4-15.5-8.02l-.05-.1-.47-1c-1.1-2.48-1.47-5.17-1.26-7.9l.1-.82h4.57v-5.5h5.37v-5.37h10.76V580h6.4v10.77z" stroke="#000" stroke-opacity="0" fill="#394d54"/><path d="M1079.76 592.8c.35-2.8-1.76-5-3.03-6.05-1.5 1.74-1.76 6.27.6 8.2-1.3 1.16-4.08 2.22-6.9 2.22h-34.4c-.25 2.96.25 5.7 1.46 8l.34.73c.26.42.56.82.86 1.2 1.4.12 2.68.15 3.9.12 2.36-.05 4.22-.34 5.7-.85.2-.05.44.06.54.27.05.2-.05.45-.25.53-.2.08-.4.13-.62.18-1.16.32-2.37.56-3.98.66h-.1c-.05 0-.1 0-.15.04-.6.03-1.32.03-1.97.03-.76 0-1.5 0-2.32-.06l-.05.04c2.88 3.23 7.37 5.16 12.97 5.16 11.9 0 22-5.3 26.43-17.14 3.18.32 6.26-.5 7.62-3.2-2.22-1.3-5.04-.88-6.66-.06z" stroke="#000" stroke-opacity="0" fill="#00aada"/><path d="M1079.75 592.8c.34-2.8-1.76-5-3-6.05-1.52 1.73-1.77 6.28.57 8.2-1.3 1.17-4.06 2.2-6.87 2.2h-32.37c-.13 4.54 1.55 8 4.52 10.07 2.35-.05 4.23-.34 5.7-.84.2-.07.46.04.5.27.08.2 0 .43-.25.52-.17.07-.38.12-.6.18-1.12.32-2.46.57-4.05.7l-.04-.06c4.06 2.08 9.92 2.06 16.67-.53 7.54-2.9 14.53-8.44 19.43-14.76l-.2.1z" stroke="#000" stroke-opacity="0" fill="#24b8eb"/><path d="M1036.12 600.76c.2 1.58.68 3.07 1.37 4.43l.35.7c.25.42.53.83.8 1.2 1.43.1 2.76.14 3.94.1 2.33-.04 4.23-.3 5.7-.82.2-.07.43.04.5.26.1.2-.03.45-.23.52-.2.08-.4.14-.6.2-1.14.33-2.47.55-4.05.65-.04.02-.16.02-.2.02-.6.04-1.3.05-1.98.05-.73 0-1.5 0-2.35-.05 2.86 3.24 7.4 5.18 13 5.18 10.17 0 19.02-3.88 24.16-12.44h-40.44z" stroke="#000" stroke-opacity="0" fill="#008bb8"/><path d="M1038.4 600.76c.6 2.78 2.08 4.97 4.2 6.45 2.32-.03 4.23-.3 5.68-.82.23-.07.47.05.53.25.08.22-.02.46-.22.54l-.6.18c-1.15.33-2.53.57-4.1.67 4.06 2.08 9.9 2.04 16.63-.55 4.07-1.56 7.97-3.9 11.5-6.7h-33.6z" stroke="#000" stroke-opacity="0" fill="#039bc6"/><path d="M1044.62 592.05h.36v3.9h-.36v-3.9zm-.7 0h.37v3.9h-.4v-3.9zm-.7 0h.37v3.9h-.4v-3.9zm-.72 0h.38v3.9h-.38v-3.9zm-.7 0h.38v3.9h-.4v-3.9zm-.7 0h.37v3.9h-.37v-3.9zm-.38-.4h4.65v4.68h-4.65v-4.67zM1049.98 586.67h.37v3.9h-.37v-3.9zm-.7 0h.38v3.9h-.4v-3.9zm-.7 0h.37v3.9h-.38v-3.9zm-.7 0h.37v3.9h-.38v-3.9zm-.72 0h.38v3.9h-.38v-3.9zm-.7 0h.38v3.9h-.37v-3.9zm-.38-.4h4.65v4.67h-4.65v-4.66z" stroke="#000" stroke-opacity="0" fill="#00acd3"/><path d="M1049.98 592.05h.37v3.9h-.37v-3.9zm-.7 0h.38v3.9h-.4v-3.9zm-.7 0h.37v3.9h-.38v-3.9zm-.7 0h.37v3.9h-.38v-3.9zm-.72 0h.38v3.9h-.38v-3.9zm-.7 0h.38v3.9h-.37v-3.9zm-.38-.4h4.65v4.68h-4.65v-4.67z" stroke="#000" stroke-opacity="0" fill="#20c2ef"/><path d="M1055.35 592.05h.37v3.9h-.37v-3.9zm-.7 0h.37v3.9h-.38v-3.9zm-.7 0h.37v3.9h-.38v-3.9zm-.72 0h.38v3.9h-.37v-3.9zm-.7 0h.38v3.9h-.37v-3.9zm-.7 0h.37v3.9h-.36v-3.9zm-.38-.4h4.65v4.68h-4.65v-4.67z" stroke="#000" stroke-opacity="0" fill="#00acd3"/><path d="M1055.35 586.67h.37v3.9h-.37v-3.9zm-.7 0h.37v3.9h-.38v-3.9zm-.7 0h.37v3.9h-.38v-3.9zm-.72 0h.38v3.9h-.37v-3.9zm-.7 0h.38v3.9h-.37v-3.9zm-.7 0h.37v3.9h-.36v-3.9zm-.38-.4h4.65v4.67h-4.65v-4.66zM1060.7 592.05h.38v3.9h-.37v-3.9zm-.7 0h.4v3.9h-.4v-3.9zm-.7 0h.38v3.9h-.38v-3.9zm-.7 0h.38v3.9h-.38v-3.9zm-.7 0h.38v3.9h-.4v-3.9zm-.7 0h.37v3.9h-.37v-3.9zm-.38-.4h4.65v4.68h-4.65v-4.67z" stroke="#000" stroke-opacity="0" fill="#20c2ef"/><path d="M1060.7 586.67h.38v3.9h-.37v-3.9zm-.7 0h.4v3.9h-.4v-3.9zm-.7 0h.38v3.9h-.38v-3.9zm-.7 0h.38v3.9h-.38v-3.9zm-.7 0h.38v3.9h-.4v-3.9zm-.7 0h.37v3.9h-.37v-3.9zm-.38-.4h4.65v4.67h-4.65v-4.66z" stroke="#000" stroke-opacity="0" fill="#00acd3"/><path d="M1060.7 581.28h.38v3.9h-.37v-3.9zm-.7 0h.4v3.9h-.4v-3.9zm-.7 0h.38v3.9h-.38v-3.9zm-.7 0h.38v3.9h-.38v-3.9zm-.7 0h.38v3.9h-.4v-3.9zm-.7 0h.37v3.9h-.37v-3.9zm-.38-.38h4.65v4.66h-4.65v-4.66z" stroke="#000" stroke-opacity="0" fill="#20c2ef"/><path d="M1066.08 592.05h.37v3.9h-.37v-3.9zm-.7 0h.37v3.9h-.38v-3.9zm-.7 0h.37v3.9h-.38v-3.9zm-.72 0h.38v3.9h-.38v-3.9zm-.7 0h.38v3.9h-.38v-3.9zm-.7 0h.38v3.9h-.37v-3.9zm-.38-.4h4.65v4.68h-4.65v-4.67z" stroke="#000" stroke-opacity="0" fill="#00acd3"/><path d="M1050.44 603.9c.7 0 1.3.57 1.3 1.28 0 .7-.6 1.3-1.3 1.3-.7 0-1.28-.6-1.28-1.3 0-.7.58-1.3 1.28-1.3" stroke="#000" stroke-opacity="0" fill="#d4edf1"/><path d="M1050.44 604.26c.12 0 .23.02.34.06-.12.07-.2.2-.2.33 0 .2.18.37.38.37.15 0 .27-.08.33-.2.04.12.06.23.06.36 0 .5-.4.92-.92.92-.5 0-.92-.4-.92-.92 0-.5.42-.92.92-.92M1027.75 601.23h59.67c-1.3-.34-4.1-.78-3.63-2.5-2.4 2.75-8.06 1.93-9.5.58-1.6 2.34-10.92 1.46-11.58-.36-2.02 2.37-8.23 2.37-10.26 0-.66 1.82-9.97 2.7-11.58.37-1.43 1.36-7.1 2.18-9.5-.56.5 1.7-2.32 2.15-3.63 2.5" stroke="#000" stroke-opacity="0" fill="#394d54"/><path d="M1053.85 613.17c-3.18-1.52-4.92-3.57-5.9-5.82-1.18.34-2.6.56-4.24.65-.6.04-1.26.06-1.95.06-.78 0-1.62-.03-2.5-.07 2.93 2.9 6.5 5.16 13.14 5.2.48 0 .97 0 1.45-.03z" stroke="#000" stroke-opacity="0" fill="#bfdbe0"/><path d="M1049.14 609.43c-.44-.6-.87-1.35-1.18-2.08-1.18.34-2.6.56-4.25.65 1.15.62 2.77 1.2 5.44 1.43z" stroke="#000" stroke-opacity="0" fill="#d4edf1"/><path d="M400 245h264v115H400z" stroke="#000" stroke-width="2" fill="#fff"/><g><use xlink:href="#m" transform="matrix(1,0,0,1,413.2,250.75) translate(0 17.333333333333336)"/><use xlink:href="#n" transform="matrix(1,0,0,1,413.2,250.75) translate(75.11111111111111 17.333333333333336)"/><use xlink:href="#o" transform="matrix(1,0,0,1,413.2,250.75) translate(144.08333333333334 17.333333333333336)"/><use xlink:href="#p" transform="matrix(1,0,0,1,413.2,250.75) translate(0 43.33333333333334)"/><use xlink:href="#q" transform="matrix(1,0,0,1,413.2,250.75) translate(78.60185185185186 43.33333333333334)"/><use xlink:href="#r" transform="matrix(1,0,0,1,413.2,250.75) translate(0 69.33333333333334)"/><use xlink:href="#s" transform="matrix(1,0,0,1,413.2,250.75) translate(52.361111111111114 69.33333333333334)"/><use xlink:href="#t" transform="matrix(1,0,0,1,413.2,250.75) translate(0 95.33333333333334)"/><use xlink:href="#u" transform="matrix(1,0,0,1,413.2,250.75) translate(48.629629629629626 95.33333333333334)"/><use xlink:href="#v" transform="matrix(1,0,0,1,413.2,250.75) translate(115.19444444444443 95.33333333333334)"/></g><defs><path fill="#333" d="M233-177c-1 41-23 64-60 70L243 0h-38l-65-103H63V0H30v-248c88 3 205-21 203 71zM63-129c60-2 137 13 137-47 0-61-80-42-137-45v92" id="w"/><path fill="#333" d="M100-194c63 0 86 42 84 106H49c0 40 14 67 53 68 26 1 43-12 49-29l28 8c-11 28-37 45-77 45C44 4 14-33 15-96c1-61 26-98 85-98zm52 81c6-60-76-77-97-28-3 7-6 17-6 28h103" id="x"/><path fill="#333" d="M85-194c31 0 48 13 60 33l-1-100h32l1 261h-30c-2-10 0-23-3-31C134-8 116 4 85 4 32 4 16-35 15-94c0-66 23-100 70-100zm9 24c-40 0-46 34-46 75 0 40 6 74 45 74 42 0 51-32 51-76 0-42-9-74-50-73" id="y"/><path fill="#333" d="M24-231v-30h32v30H24zM24 0v-190h32V0H24" id="z"/><path fill="#333" d="M135-143c-3-34-86-38-87 0 15 53 115 12 119 90S17 21 10-45l28-5c4 36 97 45 98 0-10-56-113-15-118-90-4-57 82-63 122-42 12 7 21 19 24 35" id="A"/><path fill="#333" d="M30-248c87 1 191-15 191 75 0 78-77 80-158 76V0H30v-248zm33 125c57 0 124 11 124-50 0-59-68-47-124-48v98" id="B"/><path fill="#333" d="M114-163C36-179 61-72 57 0H25l-1-190h30c1 12-1 29 2 39 6-27 23-49 58-41v29" id="C"/><path fill="#333" d="M100-194c62-1 85 37 85 99 1 63-27 99-86 99S16-35 15-95c0-66 28-99 85-99zM99-20c44 1 53-31 53-75 0-43-8-75-51-75s-53 32-53 75 10 74 51 75" id="D"/><path fill="#333" d="M141 0L90-78 38 0H4l68-98-65-92h35l48 74 47-74h35l-64 92 68 98h-35" id="E"/><path fill="#333" d="M179-190L93 31C79 59 56 82 12 73V49c39 6 53-20 64-50L1-190h34L92-34l54-156h33" id="F"/><g id="a"><use transform="matrix(0.06172839506172839,0,0,0.06172839506172839,0,0)" xlink:href="#w"/><use transform="matrix(0.06172839506172839,0,0,0.06172839506172839,15.987654320987653,0)" xlink:href="#x"/><use transform="matrix(0.06172839506172839,0,0,0.06172839506172839,28.333333333333332,0)" xlink:href="#y"/><use transform="matrix(0.06172839506172839,0,0,0.06172839506172839,40.67901234567901,0)" xlink:href="#z"/><use transform="matrix(0.06172839506172839,0,0,0.06172839506172839,45.55555555555556,0)" xlink:href="#A"/><use transform="matrix(0.06172839506172839,0,0,0.06172839506172839,56.66666666666667,0)" xlink:href="#B"/><use transform="matrix(0.06172839506172839,0,0,0.06172839506172839,71.48148148148148,0)" xlink:href="#C"/><use transform="matrix(0.06172839506172839,0,0,0.06172839506172839,78.82716049382717,0)" xlink:href="#D"/><use transform="matrix(0.06172839506172839,0,0,0.06172839506172839,91.17283950617285,0)" xlink:href="#E"/><use transform="matrix(0.06172839506172839,0,0,0.06172839506172839,102.28395061728396,0)" xlink:href="#F"/></g><path fill="#333" d="M108 0H70L1-190h34L89-25l56-165h34" id="G"/><path fill="#333" d="M96-169c-40 0-48 33-48 73s9 75 48 75c24 0 41-14 43-38l32 2c-6 37-31 61-74 61-59 0-76-41-82-99-10-93 101-131 147-64 4 7 5 14 7 22l-32 3c-4-21-16-35-41-35" id="H"/><g id="b"><use transform="matrix(0.06172839506172839,0,0,0.06172839506172839,0,0)" xlink:href="#A"/><use transform="matrix(0.06172839506172839,0,0,0.06172839506172839,11.11111111111111,0)" xlink:href="#x"/><use transform="matrix(0.06172839506172839,0,0,0.06172839506172839,23.45679012345679,0)" xlink:href="#C"/><use transform="matrix(0.06172839506172839,0,0,0.06172839506172839,30.80246913580247,0)" xlink:href="#G"/><use transform="matrix(0.06172839506172839,0,0,0.06172839506172839,41.91358024691358,0)" xlink:href="#z"/><use transform="matrix(0.06172839506172839,0,0,0.06172839506172839,46.79012345679013,0)" xlink:href="#H"/><use transform="matrix(0.06172839506172839,0,0,0.06172839506172839,57.90123456790124,0)" xlink:href="#x"/></g><g id="c"><use transform="matrix(0.06172839506172839,0,0,0.06172839506172839,0,0)" xlink:href="#w"/><use transform="matrix(0.06172839506172839,0,0,0.06172839506172839,15.987654320987653,0)" xlink:href="#x"/><use transform="matrix(0.06172839506172839,0,0,0.06172839506172839,28.333333333333332,0)" xlink:href="#y"/><use transform="matrix(0.06172839506172839,0,0,0.06172839506172839,40.67901234567901,0)" xlink:href="#z"/><use transform="matrix(0.06172839506172839,0,0,0.06172839506172839,45.55555555555556,0)" xlink:href="#A"/></g><path fill="#333" d="M30 0v-248h187v28H63v79h144v27H63v87h162V0H30" id="I"/><path fill="#333" d="M101-251c82-7 93 87 43 132L82-64C71-53 59-42 53-27h129V0H18c2-99 128-94 128-182 0-28-16-43-45-43s-46 15-49 41l-32-3c6-41 34-60 81-64" id="J"/><g id="d"><use transform="matrix(0.06172839506172839,0,0,0.06172839506172839,0,0)" xlink:href="#I"/><use transform="matrix(0.06172839506172839,0,0,0.06172839506172839,14.814814814814813,0)" xlink:href="#J"/><use transform="matrix(0.06172839506172839,0,0,0.06172839506172839,27.160493827160494,0)" xlink:href="#I"/></g><path fill="#333" d="M240-174c0 40-23 61-54 70L253 0h-59l-57-94H76V0H24v-248c93 4 217-23 216 74zM76-134c48-2 112 12 112-38 0-48-66-32-112-35v73" id="K"/><path fill="#333" d="M24 0v-248h195v40H76v63h132v40H76v65h150V0H24" id="L"/><path fill="#333" d="M24-248c120-7 223 5 221 122C244-46 201 0 124 0H24v-248zM76-40c74 7 117-18 117-86 0-67-45-88-117-82v168" id="M"/><path fill="#333" d="M24 0v-248h52V0H24" id="N"/><path fill="#333" d="M169-182c-1-43-94-46-97-3 18 66 151 10 154 114 3 95-165 93-204 36-6-8-10-19-12-30l50-8c3 46 112 56 116 5-17-69-150-10-154-114-4-87 153-88 188-35 5 8 8 18 10 28" id="O"/><g id="e"><use transform="matrix(0.04938271604938272,0,0,0.04938271604938272,0,0)" xlink:href="#K"/><use transform="matrix(0.04938271604938272,0,0,0.04938271604938272,12.790123456790125,0)" xlink:href="#L"/><use transform="matrix(0.04938271604938272,0,0,0.04938271604938272,24.641975308641978,0)" xlink:href="#M"/><use transform="matrix(0.04938271604938272,0,0,0.04938271604938272,37.4320987654321,0)" xlink:href="#N"/><use transform="matrix(0.04938271604938272,0,0,0.04938271604938272,42.370370370370374,0)" xlink:href="#O"/></g><path fill="#333" d="M136-208V0H84v-208H4v-40h212v40h-80" id="P"/><path fill="#333" d="M67-125c0 53 21 87 73 88 37 1 54-22 65-47l45 17C233-25 199 4 140 4 58 4 20-42 15-125 8-235 124-281 211-232c18 10 29 29 36 50l-46 12c-8-25-30-41-62-41-52 0-71 34-72 86" id="Q"/><path fill="#333" d="M24-248c93 1 206-16 204 79-1 75-69 88-152 82V0H24v-248zm52 121c47 0 100 7 100-41 0-47-54-39-100-39v80" id="R"/><g id="f"><use transform="matrix(0.04938271604938272,0,0,0.04938271604938272,0,0)" xlink:href="#P"/><use transform="matrix(0.04938271604938272,0,0,0.04938271604938272,10.814814814814815,0)" xlink:href="#Q"/><use transform="matrix(0.04938271604938272,0,0,0.04938271604938272,23.60493827160494,0)" xlink:href="#R"/></g><path fill="#333" d="M186 0v-106H76V0H24v-248h52v99h110v-99h50V0h-50" id="S"/><g id="g"><use transform="matrix(0.04938271604938272,0,0,0.04938271604938272,0,0)" xlink:href="#S"/><use transform="matrix(0.04938271604938272,0,0,0.04938271604938272,12.790123456790125,0)" xlink:href="#P"/><use transform="matrix(0.04938271604938272,0,0,0.04938271604938272,23.60493827160494,0)" xlink:href="#P"/><use transform="matrix(0.04938271604938272,0,0,0.04938271604938272,34.41975308641975,0)" xlink:href="#R"/></g><path fill="#333" d="M138-131c27 9 52 24 51 61 0 53-36 74-89 74S11-19 11-69c0-35 22-54 51-61-78-25-46-121 38-121 51 0 83 19 83 66 0 30-18 49-45 54zm-38-16c24 0 32-13 32-36 1-23-11-34-32-34-22 0-33 12-32 34 0 22 9 36 32 36zm1 116c27 0 37-17 37-43 0-25-13-39-39-39-24 0-37 15-37 40 0 27 11 42 39 42" id="T"/><path fill="#333" d="M101-251c68 0 84 54 84 127C185-50 166 4 99 4S15-52 14-124c-1-75 17-127 87-127zm-1 216c37-5 36-46 36-89s4-89-36-89c-39 0-36 45-36 89 0 43-3 85 36 89" id="U"/><g id="h"><use transform="matrix(0.04938271604938272,0,0,0.04938271604938272,0,0)" xlink:href="#T"/><use transform="matrix(0.04938271604938272,0,0,0.04938271604938272,9.876543209876544,0)" xlink:href="#U"/><use transform="matrix(0.04938271604938272,0,0,0.04938271604938272,19.75308641975309,0)" xlink:href="#T"/><use transform="matrix(0.04938271604938272,0,0,0.04938271604938272,29.629629629629633,0)" xlink:href="#U"/></g><g id="i"><use transform="matrix(0.04938271604938272,0,0,0.04938271604938272,0,0)" xlink:href="#P"/><use transform="matrix(0.04938271604938272,0,0,0.04938271604938272,10.814814814814815,0)" xlink:href="#Q"/><use transform="matrix(0.04938271604938272,0,0,0.04938271604938272,23.60493827160494,0)" xlink:href="#R"/></g><path fill="#333" d="M115-159c48 0 72 30 72 78 0 54-30 85-83 85-64 0-91-50-91-122 0-98 58-163 141-120 15 8 21 24 27 44l-47 6c-5-31-48-31-61-4-7 14-11 33-11 60 9-17 28-27 53-27zM102-35c24 0 36-20 36-45s-11-43-37-43c-23 0-36 14-36 38 0 27 11 50 37 50" id="V"/><path fill="#333" d="M128-127c34 4 56 21 59 58 7 91-148 94-172 28-4-9-6-17-7-26l51-5c1 24 16 35 40 36 23 0 39-12 38-36-1-31-31-36-65-34v-40c32 2 59-3 59-33 0-20-13-33-34-33s-33 13-35 32l-50-3c6-44 37-68 86-68 50 0 83 20 83 66 0 35-22 52-53 58" id="W"/><path fill="#333" d="M52 0c1-96 47-148 87-207H15v-41h169v40c-36 62-79 113-81 208H52" id="X"/><path fill="#333" d="M99-251c69 0 84 53 88 123 5 99-61 162-144 118-15-8-21-25-26-45l46-6c4 31 50 33 63 7 7-15 12-36 12-60-9 18-29 28-54 28-48 0-72-32-72-82 0-55 31-83 87-83zm-1 128c24 0 37-16 37-39 0-27-10-51-37-51-25 0-35 19-35 45 0 25 10 45 35 45" id="Y"/><g id="j"><use transform="matrix(0.04938271604938272,0,0,0.04938271604938272,0,0)" xlink:href="#V"/><use transform="matrix(0.04938271604938272,0,0,0.04938271604938272,9.876543209876544,0)" xlink:href="#W"/><use transform="matrix(0.04938271604938272,0,0,0.04938271604938272,19.75308641975309,0)" xlink:href="#X"/><use transform="matrix(0.04938271604938272,0,0,0.04938271604938272,29.629629629629633,0)" xlink:href="#Y"/></g><path d="M85-194c31 0 48 13 60 33l-1-100h32l1 261h-30c-2-10 0-23-3-31C134-8 116 4 85 4 32 4 16-35 15-94c0-66 23-100 70-100zm9 24c-40 0-46 34-46 75 0 40 6 74 45 74 42 0 51-32 51-76 0-42-9-74-50-73" id="Z"/><path d="M100-194c62-1 85 37 85 99 1 63-27 99-86 99S16-35 15-95c0-66 28-99 85-99zM99-20c44 1 53-31 53-75 0-43-8-75-51-75s-53 32-53 75 10 74 51 75" id="aa"/><path d="M96-169c-40 0-48 33-48 73s9 75 48 75c24 0 41-14 43-38l32 2c-6 37-31 61-74 61-59 0-76-41-82-99-10-93 101-131 147-64 4 7 5 14 7 22l-32 3c-4-21-16-35-41-35" id="ab"/><path d="M143 0L79-87 56-68V0H24v-261h32v163l83-92h37l-77 82L181 0h-38" id="ac"/><path d="M100-194c63 0 86 42 84 106H49c0 40 14 67 53 68 26 1 43-12 49-29l28 8c-11 28-37 45-77 45C44 4 14-33 15-96c1-61 26-98 85-98zm52 81c6-60-76-77-97-28-3 7-6 17-6 28h103" id="ad"/><path d="M114-163C36-179 61-72 57 0H25l-1-190h30c1 12-1 29 2 39 6-27 23-49 58-41v29" id="ae"/><g id="k"><use transform="matrix(0.05,0,0,0.05,0,0)" xlink:href="#Z"/><use transform="matrix(0.05,0,0,0.05,10,0)" xlink:href="#aa"/><use transform="matrix(0.05,0,0,0.05,20,0)" xlink:href="#ab"/><use transform="matrix(0.05,0,0,0.05,29,0)" xlink:href="#ac"/><use transform="matrix(0.05,0,0,0.05,38,0)" xlink:href="#ad"/><use transform="matrix(0.05,0,0,0.05,48,0)" xlink:href="#ae"/></g><path d="M210-169c-67 3-38 105-44 169h-31v-121c0-29-5-50-35-48C34-165 62-65 56 0H25l-1-190h30c1 10-1 24 2 32 10-44 99-50 107 0 11-21 27-35 58-36 85-2 47 119 55 194h-31v-121c0-29-5-49-35-48" id="af"/><path d="M115-194c55 1 70 41 70 98S169 2 115 4C84 4 66-9 55-30l1 105H24l-1-265h31l2 30c10-21 28-34 59-34zm-8 174c40 0 45-34 45-75s-6-73-45-74c-42 0-51 32-51 76 0 43 10 73 51 73" id="ag"/><path d="M135-143c-3-34-86-38-87 0 15 53 115 12 119 90S17 21 10-45l28-5c4 36 97 45 98 0-10-56-113-15-118-90-4-57 82-63 122-42 12 7 21 19 24 35" id="ah"/><g id="l"><use transform="matrix(0.05,0,0,0.05,0,0)" xlink:href="#ab"/><use transform="matrix(0.05,0,0,0.05,9,0)" xlink:href="#aa"/><use transform="matrix(0.05,0,0,0.05,19,0)" xlink:href="#af"/><use transform="matrix(0.05,0,0,0.05,33.95,0)" xlink:href="#ag"/><use transform="matrix(0.05,0,0,0.05,43.95,0)" xlink:href="#aa"/><use transform="matrix(0.05,0,0,0.05,53.95,0)" xlink:href="#ah"/><use transform="matrix(0.05,0,0,0.05,62.95,0)" xlink:href="#ad"/></g><path d="M75-131c50 2 93 3 93-48 0-46-48-41-93-41v89zm0 115c55 4 111 6 111-51 0-53-58-48-111-48v99zm148-52C223 24 102-3 10 0v-9l31-5v-208l-31-4v-10c77 6 193-24 194 56 0 33-20 48-48 54 36 5 67 20 67 58" id="ai"/><path d="M57-145c16-10 35-24 60-25v45c-19 1-8-30-40-17l-20 6v124l29 4v8H7v-8l21-4v-141c-8-3-24 2-21-12h48" id="aj"/><path d="M47-200c-23 0-25-39 0-38 13 0 18 7 20 19-1 11-8 19-20 19zM65-12l28 4v8H8v-8l28-4v-141l-24-4v-8h53v153" id="ak"/><path d="M13-81c0-71 46-101 114-85l-1-72-28-4v-8h57v238c8 3 24-2 21 12h-47l-2-12C80 23 13-1 13-81zm77-74c-37 1-44 33-45 74 0 38 9 66 45 66 14 0 27-3 36-7v-130c-10-1-24-3-36-3" id="al"/><path d="M141-152c28 39 5 97-54 97-9 0-20-2-27-3L49-35c29 22 130-14 124 52-4 45-38 57-88 61C21 83-8 26 45-2 33-6 22-15 21-31l28-31c-19-9-28-26-28-51-2-51 53-65 100-52l38-20 7 8zM85 64c35 0 61-11 61-42 0-35-57-17-89-21-9 8-16 19-17 34 0 25 19 29 45 29zM52-113c1 26 7 46 35 44 28-1 34-16 35-44 0-26-6-43-34-43s-36 17-36 43" id="am"/><path d="M84-170c49 0 66 33 63 87H46c-8 60 38 80 95 63v10C128-2 108 4 88 4 34 4 14-29 14-84c-1-54 22-86 70-86zm33 73c12-57-57-82-69-24-1 7-2 15-2 24h71" id="an"/><g id="m"><use transform="matrix(0.06018518518518519,0,0,0.06018518518518519,0,0)" xlink:href="#ai"/><use transform="matrix(0.06018518518518519,0,0,0.06018518518518519,14.444444444444445,0)" xlink:href="#aj"/><use transform="matrix(0.06018518518518519,0,0,0.06018518518518519,21.60648148148148,0)" xlink:href="#ak"/><use transform="matrix(0.06018518518518519,0,0,0.06018518518518519,27.625,0)" xlink:href="#al"/><use transform="matrix(0.06018518518518519,0,0,0.06018518518518519,38.458333333333336,0)" xlink:href="#am"/><use transform="matrix(0.06018518518518519,0,0,0.06018518518518519,49.29166666666667,0)" xlink:href="#an"/><use transform="matrix(0.06018518518518519,0,0,0.06018518518518519,58.861111111111114,0)" xlink:href="#al"/></g><path d="M75-17c87 13 134-18 134-103 0-78-51-106-134-100v203zm171-102C246 5 139 7 10 0v-9l31-5v-208l-31-4v-10h107c82 0 129 35 129 117" id="ao"/><path d="M90-170c52 0 76 32 76 87 0 54-24 87-77 87-51 0-75-34-75-87 0-54 24-87 76-87zM89-10c39 0 46-35 46-73 0-39-7-73-46-73-39 1-44 34-44 73s6 72 44 73" id="ap"/><path d="M45-84c0 64 52 80 104 63 1 25-30 25-55 25-56 0-80-32-80-88 0-76 62-98 131-80v46h-10c-5-15-4-31-23-35-47-10-67 21-67 69" id="aq"/><path d="M60-80l68-73c-7-3-20 0-17-12h58c3 13-13 9-20 12l-47 48 60 93c7 3 21-1 18 12h-68c-3-12 9-9 15-12L82-83 60-60v48c7 3 21-1 18 12H10v-8l21-4v-226l-24-4v-8h53v170" id="ar"/><g id="n"><use transform="matrix(0.06018518518518519,0,0,0.06018518518518519,0,0)" xlink:href="#ao"/><use transform="matrix(0.06018518518518519,0,0,0.06018518518518519,15.587962962962964,0)" xlink:href="#ap"/><use transform="matrix(0.06018518518518519,0,0,0.06018518518518519,26.421296296296298,0)" xlink:href="#aq"/><use transform="matrix(0.06018518518518519,0,0,0.06018518518518519,35.99074074074074,0)" xlink:href="#ar"/><use transform="matrix(0.06018518518518519,0,0,0.06018518518518519,46.824074074074076,0)" xlink:href="#an"/><use transform="matrix(0.06018518518518519,0,0,0.06018518518518519,56.39351851851852,0)" xlink:href="#aj"/></g><path d="M203-222l-32-4v-10h81v10l-31 4V0h-17L59-212v198l32 5v9H10v-9l31-5v-208l-31-4v-10h72L203-61v-161" id="as"/><path d="M54-38c-1 25 24 26 44 20v12C71 10 25 9 25-35v-115H4c-2-14 14-10 21-15l18-38h11v38h38v15H54v112" id="at"/><path d="M240-154L185 4h-14l-41-109L90 4H77L20-153c-7-3-23 1-20-12h79v8l-27 4L91-41l40-108h14l40 109 38-113-28-4v-8h63v8" id="au"/><path d="M45-37c13 0 21 8 21 21C67-2 57 4 45 5 33 4 23-2 24-16c0-13 8-21 21-21" id="av"/><g id="o"><use transform="matrix(0.06018518518518519,0,0,0.06018518518518519,0,0)" xlink:href="#as"/><use transform="matrix(0.06018518518518519,0,0,0.06018518518518519,15.587962962962964,0)" xlink:href="#an"/><use transform="matrix(0.06018518518518519,0,0,0.06018518518518519,25.15740740740741,0)" xlink:href="#at"/><use transform="matrix(0.06018518518518519,0,0,0.06018518518518519,31.175925925925927,0)" xlink:href="#au"/><use transform="matrix(0.06018518518518519,0,0,0.06018518518518519,46.76388888888889,0)" xlink:href="#ap"/><use transform="matrix(0.06018518518518519,0,0,0.06018518518518519,57.59722222222223,0)" xlink:href="#aj"/><use transform="matrix(0.06018518518518519,0,0,0.06018518518518519,64.75925925925927,0)" xlink:href="#ar"/><use transform="matrix(0.06018518518518519,0,0,0.06018518518518519,75.5925925925926,0)" xlink:href="#av"/></g><path d="M178-68c0 79-95 82-154 59v-54h12c1 35 22 52 60 52 50 0 69-58 33-82-39-24-105-21-105-85 0-67 86-66 142-53v49h-12l-6-29c-31-27-121-7-89 42 28 43 119 24 119 101" id="aw"/><path d="M164-154L98 4H85L17-153c-7-3-20 0-17-12h77v8l-26 4L99-38l46-115-26-4v-8h61v8" id="ax"/><path d="M41-130c7 48 86 23 86 84 0 56-69 57-112 41v-40c20 0 9 29 31 31 35 19 77-26 41-50-27-18-72-13-72-59 0-50 58-52 100-41v36c-19 1-8-25-28-25-21-7-50-1-46 23" id="ay"/><g id="p"><use transform="matrix(0.06018518518518519,0,0,0.06018518518518519,0,0)" xlink:href="#aw"/><use transform="matrix(0.06018518518518519,0,0,0.06018518518518519,12.037037037037038,0)" xlink:href="#an"/><use transform="matrix(0.06018518518518519,0,0,0.06018518518518519,21.60648148148148,0)" xlink:href="#aj"/><use transform="matrix(0.06018518518518519,0,0,0.06018518518518519,28.76851851851852,0)" xlink:href="#ax"/><use transform="matrix(0.06018518518518519,0,0,0.06018518518518519,39.601851851851855,0)" xlink:href="#ak"/><use transform="matrix(0.06018518518518519,0,0,0.06018518518518519,45.620370370370374,0)" xlink:href="#aq"/><use transform="matrix(0.06018518518518519,0,0,0.06018518518518519,55.18981481481482,0)" xlink:href="#an"/><use transform="matrix(0.06018518518518519,0,0,0.06018518518518519,64.75925925925927,0)" xlink:href="#ay"/></g><path d="M126-118c4-37-42-32-68-25v131l24 4v8H8C5-13 21-9 28-12v-141c-7-3-23 1-20-12h48l1 13c22-15 77-30 92 2 32-22 104-36 104 29v109c8 3 24-2 21 12h-75v-8l25-4v-106c3-39-45-31-72-24 7 37 1 88 3 130l25 4v8h-78v-8l24-4v-106" id="az"/><path d="M124-13C89 8 26 15 26-45v-108c-8-3-24 2-21-12h50v118c-3 37 42 32 69 25v-131l-25-4v-8h54v153c8 3 24-2 21 12h-48" id="aA"/><path d="M125-118c4-37-41-34-68-26v132l23 4v8H8C5-13 21-9 28-12v-141c-7-3-23 1-20-12h47l2 13c31-23 98-29 98 31v109c7 3 23-1 20 12h-72v-8l22-4v-106" id="aB"/><path d="M32-163c41-10 102-14 102 39v112c8 3 24-2 21 12h-45l-4-17C83 13 3 13 13-46c-2-50 45-50 92-51 4-36-5-70-42-56-6 2-12 4-16 6-4 7 0 23-15 20v-36zM42-47c0 41 41 33 63 22v-59c-34 1-63-1-63 37" id="aC"/><g id="q"><use transform="matrix(0.06018518518518519,0,0,0.06018518518518519,0,0)" xlink:href="#aq"/><use transform="matrix(0.06018518518518519,0,0,0.06018518518518519,9.569444444444445,0)" xlink:href="#ap"/><use transform="matrix(0.06018518518518519,0,0,0.06018518518518519,20.40277777777778,0)" xlink:href="#az"/><use transform="matrix(0.06018518518518519,0,0,0.06018518518518519,37.25462962962963,0)" xlink:href="#az"/><use transform="matrix(0.06018518518518519,0,0,0.06018518518518519,54.10648148148148,0)" xlink:href="#aA"/><use transform="matrix(0.06018518518518519,0,0,0.06018518518518519,64.93981481481481,0)" xlink:href="#aB"/><use transform="matrix(0.06018518518518519,0,0,0.06018518518518519,75.77314814814814,0)" xlink:href="#ak"/><use transform="matrix(0.06018518518518519,0,0,0.06018518518518519,81.79166666666666,0)" xlink:href="#aq"/><use transform="matrix(0.06018518518518519,0,0,0.06018518518518519,91.3611111111111,0)" xlink:href="#aC"/><use transform="matrix(0.06018518518518519,0,0,0.06018518518518519,100.93055555555554,0)" xlink:href="#at"/><use transform="matrix(0.06018518518518519,0,0,0.06018518518518519,106.94907407407406,0)" xlink:href="#an"/></g><g id="r"><use transform="matrix(0.06018518518518519,0,0,0.06018518518518519,0,0)" xlink:href="#aA"/><use transform="matrix(0.06018518518518519,0,0,0.06018518518518519,10.833333333333334,0)" xlink:href="#ay"/><use transform="matrix(0.06018518518518519,0,0,0.06018518518518519,19.25925925925926,0)" xlink:href="#ak"/><use transform="matrix(0.06018518518518519,0,0,0.06018518518518519,25.27777777777778,0)" xlink:href="#aB"/><use transform="matrix(0.06018518518518519,0,0,0.06018518518518519,36.111111111111114,0)" xlink:href="#am"/></g><path d="M13-71v-27h94v27H13" id="aD"/><path d="M166-85c3 67-44 102-111 85l1 64 29 4v9H6v-9l21-4v-217c-7-3-22 1-19-12h46l1 9c11-8 26-14 45-14 47 2 64 36 66 85zM56-13c53 14 83-14 78-72 7-53-33-79-78-60v132" id="aE"/><g id="s"><use transform="matrix(0.06018518518518519,0,0,0.06018518518518519,0,0)" xlink:href="#al"/><use transform="matrix(0.06018518518518519,0,0,0.06018518518518519,10.833333333333334,0)" xlink:href="#ap"/><use transform="matrix(0.06018518518518519,0,0,0.06018518518518519,21.666666666666668,0)" xlink:href="#aq"/><use transform="matrix(0.06018518518518519,0,0,0.06018518518518519,31.236111111111114,0)" xlink:href="#ar"/><use transform="matrix(0.06018518518518519,0,0,0.06018518518518519,42.06944444444445,0)" xlink:href="#an"/><use transform="matrix(0.06018518518518519,0,0,0.06018518518518519,51.63888888888889,0)" xlink:href="#aj"/><use transform="matrix(0.06018518518518519,0,0,0.06018518518518519,58.37962962962963,0)" xlink:href="#aD"/><use transform="matrix(0.06018518518518519,0,0,0.06018518518518519,65.54166666666667,0)" xlink:href="#aq"/><use transform="matrix(0.06018518518518519,0,0,0.06018518518518519,75.11111111111111,0)" xlink:href="#ap"/><use transform="matrix(0.06018518518518519,0,0,0.06018518518518519,85.94444444444444,0)" xlink:href="#az"/><use transform="matrix(0.06018518518518519,0,0,0.06018518518518519,102.79629629629629,0)" xlink:href="#aE"/><use transform="matrix(0.06018518518518519,0,0,0.06018518518518519,113.62962962962962,0)" xlink:href="#ap"/><use transform="matrix(0.06018518518518519,0,0,0.06018518518518519,124.46296296296295,0)" xlink:href="#ay"/><use transform="matrix(0.06018518518518519,0,0,0.06018518518518519,132.88888888888889,0)" xlink:href="#an"/></g><g id="t"><use transform="matrix(0.06018518518518519,0,0,0.06018518518518519,0,0)" xlink:href="#ao"/><use transform="matrix(0.06018518518518519,0,0,0.06018518518518519,15.587962962962964,0)" xlink:href="#as"/><use transform="matrix(0.06018518518518519,0,0,0.06018518518518519,31.175925925925927,0)" xlink:href="#aw"/></g><g id="u"><use transform="matrix(0.06018518518518519,0,0,0.06018518518518519,0,0)" xlink:href="#ay"/><use transform="matrix(0.06018518518518519,0,0,0.06018518518518519,8.425925925925926,0)" xlink:href="#an"/><use transform="matrix(0.06018518518518519,0,0,0.06018518518518519,17.99537037037037,0)" xlink:href="#aj"/><use transform="matrix(0.06018518518518519,0,0,0.06018518518518519,25.15740740740741,0)" xlink:href="#ax"/><use transform="matrix(0.06018518518518519,0,0,0.06018518518518519,35.99074074074074,0)" xlink:href="#ak"/><use transform="matrix(0.06018518518518519,0,0,0.06018518518518519,42.00925925925926,0)" xlink:href="#aq"/><use transform="matrix(0.06018518518518519,0,0,0.06018518518518519,51.5787037037037,0)" xlink:href="#an"/></g><path d="M161-154L85 37C75 66 49 86 8 75V39c18-2 6 24 29 21 30-4 38-32 47-58L21-153c-7-3-20 0-17-12h77v8l-26 4 45 116 43-116-26-4v-8h62v8" id="aF"/><g id="v"><use transform="matrix(0.06018518518518519,0,0,0.06018518518518519,0,0)" xlink:href="#al"/><use transform="matrix(0.06018518518518519,0,0,0.06018518518518519,10.833333333333334,0)" xlink:href="#ak"/><use transform="matrix(0.06018518518518519,0,0,0.06018518518518519,16.851851851851855,0)" xlink:href="#ay"/><use transform="matrix(0.06018518518518519,0,0,0.06018518518518519,25.27777777777778,0)" xlink:href="#aq"/><use transform="matrix(0.06018518518518519,0,0,0.06018518518518519,34.84722222222222,0)" xlink:href="#ap"/><use transform="matrix(0.06018518518518519,0,0,0.06018518518518519,45.68055555555556,0)" xlink:href="#ax"/><use transform="matrix(0.06018518518518519,0,0,0.06018518518518519,56.51388888888889,0)" xlink:href="#an"/><use transform="matrix(0.06018518518518519,0,0,0.06018518518518519,66.08333333333334,0)" xlink:href="#aj"/><use transform="matrix(0.06018518518518519,0,0,0.06018518518518519,73.24537037037038,0)" xlink:href="#aF"/></g></defs></g></svg>